<svg width="34" height="34" viewBox="0 0 34 34" fill="none" xmlns="http://www.w3.org/2000/svg">
<path d="M30.7963 20.9829C32.3765 24.7978 33.3113 29.2418 33.394 33.4H31.0791C31.0042 29.5222 30.2043 25.6909 28.7187 22.1043C27.1565 18.3329 24.8668 14.9062 21.9803 12.0197C19.0938 9.13318 15.6671 6.84348 11.8957 5.28132C8.30915 3.79574 4.47776 2.99577 0.6 2.92092V0.605651C4.75684 0.683645 9.14775 1.56706 12.9593 3.14588C16.958 4.80219 20.5914 7.2299 23.6518 10.2904C26.7123 13.3508 29.14 16.9842 30.7963 20.9829Z" stroke="#F2F2F2" stroke-width="1.2"/>
<path d="M25.4089 22.9413C26.6812 26.0129 27.5568 30.0039 27.6513 33.4H25.4865C25.4125 30.2566 24.7576 27.1521 23.553 24.244C22.2718 21.151 20.394 18.3406 18.0267 15.9733C15.6594 13.606 12.849 11.7282 9.75596 10.447C6.84783 9.24242 3.74341 8.58748 0.6 8.51349V6.34732C3.99081 6.42657 7.84163 7.16739 10.903 8.43545C14.155 9.78245 17.1097 11.7568 19.5987 14.2457C22.0876 16.7346 24.0619 19.6894 25.4089 22.9413Z" stroke="#F2F2F2" stroke-width="1.2" stroke-linecap="round" stroke-linejoin="round"/>
<path d="M20.6622 25.7883C21.7043 28.2074 22.2763 30.7871 22.3523 33.3998H20.0251C20.0108 32.2774 19.9489 31.3777 19.7644 30.4709C19.5745 29.5381 19.2598 28.6221 18.7608 27.4638C17.6805 24.9561 16.0978 22.679 14.1042 20.7621C12.1106 18.8452 9.74516 17.3258 7.14347 16.2896C4.7479 15.3355 3.08666 14.9163 0.6 14.8608V12.5296C3.33512 12.6001 6.03493 13.1523 8.5648 14.1599C11.2795 15.2411 13.7446 16.8253 15.82 18.8208C17.8954 20.8164 19.5404 23.1842 20.6622 25.7883Z" stroke="#F2F2F2" stroke-width="1.2" stroke-linecap="round" stroke-linejoin="round"/>
</svg>
